<?xml version="1.0" encoding="utf-8"?>
<!-- Generator: Adobe Illustrator 16.0.0, SVG Export Plug-In . SVG Version: 6.00 Build 0)  -->
<!DOCTYPE svg PUBLIC "-//W3C//DTD SVG 1.1//EN" "http://www.w3.org/Graphics/SVG/1.1/DTD/svg11.dtd">
<svg version="1.1" id="_x31_" xmlns="http://www.w3.org/2000/svg" xmlns:xlink="http://www.w3.org/1999/xlink" x="0px" y="0px"
	 width="1000px" height="800px" viewBox="0 0 1000 800" style="enable-background:new 0 0 1000 800;" xml:space="preserve">
<style type="text/css">
<![CDATA[
	.st0{fill:#AA4B46;}
	.st1{fill:#7C332F;}
	.st2{fill:#AD8C53;}
	.st3{fill:#AD8D55;}
	.st4{fill:#7F3B2F;}
	.st5{fill:#AF8A77;}
	.st6{fill:#E2CA9A;}
	.st7{fill:#E5BB70;}
	.st8{fill:#4C3E34;}
	.st9{fill:#4D525E;}
	.st10{opacity:0.5;fill:#BC5642;}
	.st11{fill:#825C59;}
	.st12{fill:#838B9B;}
	.st13{fill:none;stroke:#87665C;stroke-miterlimit:10;}
	.st14{fill:#EA5C7E;}
	.st15{fill:#EAD5A7;}
	.st16{fill:#EADCE9;}
	.st17{fill:#EF8F6F;}
	.st18{fill:#525863;}
	.st19{fill:#542B2B;}
	.st20{fill:#54343C;}
	.st21{fill:#555F63;}
	.st22{fill:#BA733E;}
	.st23{fill:#BAD0DD;}
	.st24{fill:#BC9C62;}
	.st25{fill:#8E5942;}
	.st26{fill:#F3FDFF;}
	.st27{fill:#262B33;}
	.st28{fill:#5A6270;}
	.st29{fill:#5B4A4D;}
	.st30{opacity:0.6;fill:#424C5B;}
	.st31{fill:#5E3636;}
	.st32{fill:#F99D3A;}
	.st33{fill:#F9AD8F;}
	.st34{fill:#91513A;}
	.st35{fill:#C1F4F4;}
	.st36{fill:#2B3038;}
	.st37{fill:#C6ABC4;}
	.st38{fill:#C6AC9D;}
	.st39{fill:#C6C646;}
	.st40{fill:#994D47;}
	.st41{fill:#99B4BC;}
	.st42{fill:#2F343D;}
	.st43{fill:#605256;}
	.st44{fill:#FFAC61;}
	.st45{fill:#FFB845;}
	.st46{fill:#FFCD7D;}
	.st47{fill:#FFCD9C;}
	.st48{fill:#FFD176;}
	.st49{fill:#FFD366;}
	.st50{fill:#FFDEB3;}
	.st51{fill:#FFE9CF;}
	.st52{fill:#FFEF78;}
	.st53{fill:#FFEFBB;}
	.st54{fill:#FFF3DC;}
	.st55{fill:#FFF5D9;}
	.st56{fill:#664242;}
	.st57{fill:#9AD5D8;}
	.st58{fill:#9B5343;}
	.st59{fill:#9EA3AF;}
	.st60{fill:#30353A;}
	.st61{fill:#CE896B;}
	.st62{fill:#CEB176;}
	.st63{fill:#6D5A6A;}
	.st64{fill:#D3D8E2;}
	.st65{fill:#3A3F49;}
	.st66{fill:#3C4149;}
	.st67{fill:#D8C3D5;}
	.st68{fill:#704C53;}
	.st69{fill:#A37157;}
	.st70{fill:#747C89;}
	.st71{fill:#773926;}
	.st72{fill:#DBC08A;}
	.st73{fill:#DDBEA2;}
	.st74{fill:#DDE9F2;}
	.st75{opacity:0.6;fill:#964B41;}
	.st76{fill:#424751;}
	.st77{fill:#444954;}
]]>
</style>
<g>
	<g>
		<path class="st39" d="M811,577.4c0,0,10.2,22.5-6.7,43.8c0,0,21.4-11.1,20.1-27c0,0,6.9,22.1-12.3,34.8c0,0,36.6-19.3,28.7-38.5
			c0,0,11.7,17.9-5.4,35.5c0,0,33-26.6,9.6-52.1c0,0,17.1,11.1,13.2,28.8c1.6-4.3,6.3-13,20.4-21.7c0,0-11.9,17.6-12.3,31.6
			c0,0,13-10.1,16.7-21.2c0,0-0.7,11.8-5.9,23C884,604.3,894.9,589,903,584v0c-1.1,1.6-20.2,30.6-15.2,43.5c0,0,10.2-10.3,14.9-19.7
			l-0.3,32.5l-0.2,0.6h-0.6l-126.8-0.9C781.8,633.7,813.4,603.2,811,577.4z"/>
		<path class="st39" d="M788.4,576.2c0,0-9.8,22.4,5.2,43.9c0,0-19.4-11.4-17.9-27.3c0,0-6.8,22,10.5,34.9c0,0-33.1-19.8-25.5-38.9
			c0,0-11.1,17.7,4.2,35.6c0,0-29.7-27.1-7.7-52.2c0,0-15.9,10.9-12.7,28.6c-1.3-4.3-5.5-13.1-18.3-22c0,0,10.5,17.8,10.6,31.8
			c0,0-11.7-10.3-14.9-21.4c0,0,0.4,11.8,4.9,23.1c-6-10.3-15.7-25.7-23-30.9v0c0.9,1.6,17.9,30.9,13,43.7c0,0-9.2-10.4-13.3-19.9
			l-0.3,32.5l0.2,0.6l0.6,0l116.2,0.9C814,632.9,785.6,602,788.4,576.2z"/>
		<path class="st39" d="M686.5,558.1c0,0-22.1,33.4-1.4,59.2c0,0-29.4-12.3-24.3-32.8c0,0-14.1,28.4,10.4,42.6
			c0,0-46.1-20.7-33-44.8c0,0-17.6,23,1.4,42c0,0-36.7-27.8-4.4-62.8c0,0-23.5,17.4-20.8,37.8c-1.4-4.8-6.1-14.4-21.6-22.5
			c0,0,12,18.7,11.2,34.2c0,0-13.4-10-16.7-21.7c0,0,0,12.8,4.8,24.3c-6.5-10.3-16.9-25.5-24.8-30v0c1,1.6,19,30.4,13.3,43.5
			c0,0-9.4-9.8-13.6-18.8l-0.3,30.9l0.2,0.6l0.6,0l161.5,1.2C718.9,632.5,675.6,594.8,686.5,558.1z"/>
	</g>
	<ellipse class="st39" cx="500" cy="638.2" rx="456.1" ry="9.6"/>
	<ellipse class="st52" cx="500" cy="642" rx="456.1" ry="6"/>
	<ellipse class="st75" cx="688.6" cy="639.5" rx="117.6" ry="2"/>
	<ellipse class="st75" cx="430.9" cy="639.5" rx="117.6" ry="2"/>
	<ellipse class="st75" cx="224.3" cy="639.5" rx="98.6" ry="2"/>
	<g>
		<polygon class="st44" points="290.6,639.2 309.9,592.1 327.7,594.3 315,639.2 		"/>
		<polygon class="st48" points="321.2,639.2 310.2,592.1 332.7,594.3 349.9,639.2 		"/>
	</g>
	<g>
		<polygon class="st44" points="736.5,639.2 720.8,592.1 706.4,594.3 716.7,639.2 		"/>
		<polygon class="st48" points="711.6,639.2 720.6,592.1 702.3,594.3 688.3,639.2 		"/>
	</g>
	<g>
		<polygon class="st44" points="561.4,639.2 555.3,594 539.3,598 538.3,639.2 		"/>
		<polygon class="st48" points="555.3,639.2 555.3,593.5 530.9,594.8 527.8,639.2 		"/>
	</g>
	<g>
		<g>
			<polygon class="st63" points="883.3,634.6 838.7,586.8 809.1,634.6 807.4,634.6 838.4,583.4 884.8,634.6 			"/>
		</g>
		<polygon class="st63" points="840.2,585.8 837.8,585.8 837.8,634.6 839.3,634.6 		"/>
		<g>
			<polygon class="st63" points="841.2,585.8 839.2,585.7 863.1,318.1 831,269.4 832.7,268.3 865.2,317.6 			"/>
		</g>
		<g>
			
				<rect x="802.6" y="320.1" transform="matrix(0.249 0.9685 -0.9685 0.249 948.0327 -580.3425)" class="st63" width="91.3" height="2"/>
		</g>
		<polygon class="st63" points="840.4,267.9 820.9,233.5 798.7,249.3 833,277.3 		"/>
		<path class="st67" d="M816.4,242.6l18.2,25.3c0,0-5.1,9.6-9.9,8.6c-4.8-1-25-20-21-26.3C807.8,243.9,816.4,242.6,816.4,242.6z"/>
		<path class="st37" d="M816.4,242.6c0,0-1.1,0.2-2.7,0.7c3,2.9,5.8,7.4,7.9,12.7c3,7.8,3.4,15.4,1.5,19.8c0.7,0.4,1.3,0.6,1.7,0.7
			c4.8,1,9.9-8.6,9.9-8.6L816.4,242.6z"/>
		<path class="st16" d="M809.1,260.5c0,0-6.3-5.1-4.8-9.3c1.5-4.3,6.3-5.1,6.3-5.1L809.1,260.5z"/>
	</g>
	<g>
		<path class="st13" d="M466.6,639.2c0,0,0.3-29.7-4.9-58.3C456.5,552.4,466.6,639.2,466.6,639.2z"/>
		<polygon class="st51" points="452.4,593.5 447.6,565.1 470.4,565.8 478,593.5 		"/>
		<g>
			<path class="st29" d="M460.6,586.4c-0.1-1.1-0.2-2.3-0.4-3.4c-0.1-1.2-0.3-2.3-0.5-3.4c-0.1-0.4-0.1-0.7-0.2-1.1
				c-0.1-0.4-0.1-0.7-0.2-1.1c-0.2,0.1-0.4,0.2-0.5,0.3c-0.2,0.1-0.3,0.3-0.5,0.4c-0.3-0.4-0.6-0.9-1-1.5c-0.3-0.5-0.6-1.1-0.9-1.7
				c0.3-0.4,0.6-0.9,0.8-1.3c0.3-0.4,0.6-0.8,0.9-1.1c0.6,0,1.2,0,1.8,0.1c0.6,0.1,1.2,0.2,1.7,0.3c0.3,2.3,0.6,4.6,0.9,6.8
				c0.3,2.2,0.5,4.4,0.7,6.5C462.7,586.3,461.8,586.4,460.6,586.4z"/>
		</g>
	</g>
	<g>
		<path class="st13" d="M622.4,639.2c0,0-0.4-24.8,4.4-48.6C631.5,566.7,622.4,639.2,622.4,639.2z"/>
		<polygon class="st51" points="634.9,607.3 640.6,583.7 621.2,583.8 613.3,606.6 		"/>
		<g>
			<path class="st29" d="M621.5,599.9c0.2-0.6,0.4-1.2,0.5-1.7c0.2-0.5,0.3-0.9,0.5-1.2c0.1-0.3,0.3-0.6,0.4-0.9
				c0.1-0.2,0.3-0.4,0.4-0.6c0.7-0.7,1.7-1.1,3-1.1c0.3,0,0.7,0,1,0c0.4,0,0.7,0,1.1,0c0.4,0,0.7,0,1,0c0.3,0,0.5,0,0.7,0
				c0.2,0,0.4-0.1,0.5-0.2c0.1-0.1,0.2-0.3,0.3-0.5c0.1-0.3,0.1-0.4,0-0.5c-0.1-0.1-0.2-0.2-0.4-0.2c-1,0-2,0-3,0.1
				c-1,0.1-2,0.2-3.1,0.2c0.1-0.7,0.2-1.3,0.3-2c0.1-0.7,0.3-1.4,0.5-2.1c0.4,0,0.8,0,1.2-0.1c0.4,0,0.8,0,1.2,0c0.4,0,0.8,0,1.2,0
				c0.4,0,0.8,0,1.2,0c1.2,0.1,1.9,0.3,2.3,0.9c0.4,0.5,0.5,1.3,0.2,2.3c-0.2,0.6-0.4,1.1-0.7,1.5c-0.3,0.4-0.5,0.8-0.8,1
				c-0.3,0.3-0.6,0.4-1,0.6c-0.3,0.1-0.7,0.2-1,0.2c-0.3,0-0.6,0-1,0c-0.4,0-0.7,0-1.1,0c-0.4,0-0.7,0-1,0c-0.3,0-0.6,0-0.7,0
				c-0.4,0-0.7,0.1-0.9,0.4c-0.3,0.3-0.5,0.6-0.6,1.1c1.2,0,2.5,0,3.7-0.1c1.2,0,2.5-0.1,3.8-0.2c-0.2,0.5-0.4,1-0.7,1.4
				c-0.2,0.4-0.4,0.8-0.6,1.2c-1.5,0.2-3,0.2-4.4,0.3C624.4,599.9,623,599.9,621.5,599.9z"/>
		</g>
	</g>
	<g>
		<g>
			<path class="st50" d="M340.2,292c-0.2-3.2,3-10.9,4.4-12.6c1.4-1.7-4-10-6-8.8c-2,1.2-3.3,18.3-3.3,18.3L340.2,292z"/>
			<path class="st50" d="M340.5,273.6c0.2-2.6,0.7-5.4,0.8-6.2c0.2-0.8,2.6-4.6,1-5.4c-1.5-0.8-5.2,7.7-4.9,12.3L340.5,273.6z"/>
			<path class="st50" d="M342.5,275.9c0.9-2.4,2.2-5,2.6-5.7c0.4-0.7,3.8-3.7,2.6-4.8c-1.2-1.2-7.3,5.9-8.3,10.3L342.5,275.9z"/>
			<path class="st50" d="M343.9,280.4c1.2-2.3,2.9-4.6,3.3-5.3c0.5-0.7,4.2-3.1,3.2-4.5c-1.1-1.3-7.9,4.9-9.5,9.2L343.9,280.4z"/>
			<path class="st50" d="M337.9,278.4c0.1-3.1-2.5-4.8-2.8-5.6c-0.3-0.8-0.5-5.2-2.2-5c-1.7,0.2,1.3,14.5,2.8,21.3
				C335.7,289.1,337.7,281.5,337.9,278.4z"/>
		</g>
		<path class="st58" d="M290.7,206.4c3.4-9.6-34.7-34.5-52.1-9.9c-9.4,13.2,3.6,47.4,10.3,58.9l11,1.7
			C259.8,257.2,287.7,214.8,290.7,206.4z"/>
		<path class="st4" d="M259.5,210.1c-2.8-8.9-2.1-17.8,1.3-24.2c-8-0.6-16.1,2-22.2,10.6c-9.4,13.2,3.6,47.4,10.3,58.9l11,1.7
			c0,0,10-13.3,18.6-26.5C270.4,228.6,262.9,220.8,259.5,210.1z"/>
		<path class="st76" d="M311.3,351.7c-6-2.4-43.7-46.8-47.1-53.8c-3.4-7,23-21.7,27.6-18.7c4.6,3,27.6,43.9,29.4,48.6
			S323.4,356.5,311.3,351.7z"/>
		<path class="st60" d="M294.2,309.6c-5-11.2-7.3-22.2-7-30.4c-8.9,2.3-25.8,13-23,18.7c3.4,7,40.2,53.2,46.3,55.6
			c7.4,3,10.5-5.7,11.3-13.8C313.3,338.9,301.9,326.8,294.2,309.6z"/>
		<path class="st9" d="M201.8,402.5c0,0-2.7,107.4-3.5,124.8c-0.7,17.5-4.7,32.9-5.7,46.8c-0.9,13,1.3,62.5,1.3,62.5h5.3
			c0,0,21.9-88.3,24.3-105.2c1.9-13.3,15-74.3,18.1-74.3c3.2,0,14.5,62.7,15.7,77.6c1.1,14.9-0.7,28,0.3,38.6
			c1.1,10.8,19.3,63.3,19.3,63.3h3.8c0,0-2.6-205.1,0.4-241.6C281.3,395.1,225.5,390.4,201.8,402.5z"/>
		<g>
			<path class="st77" d="M199.1,505.1c-0.3,10.3-0.6,18.4-0.7,22.2c-0.7,17.5-4.7,32.9-5.7,46.8c-0.9,13,1.3,62.5,1.3,62.5h5.3
				c0,0,21.9-88.3,24.3-105.2c0.1-0.6,0.2-1.4,0.3-2.2C214.4,524.2,205.9,515.8,199.1,505.1z"/>
			<path class="st77" d="M257.3,533.6c0,0.4,0.1,0.8,0.1,1.1c1.1,14.9-0.7,28,0.3,38.6c1.1,10.8,19.3,63.3,19.3,63.3h3.8
				c0,0-0.7-56.6-0.9-115.6C273.1,527.2,265.5,531.5,257.3,533.6z"/>
		</g>
		<g>
			<path class="st65" d="M199.4,576.5c1.4-13.9,5.7-29.4,6.9-46.9c1.2-17.5,6.8-125.1,6.8-125.1c17.2-8.7,50.5-8.8,68.1-8.1
				c0-0.5,0.1-0.9,0.1-1.3c0,0-55.8-4.8-79.5,7.4c0,0-2.7,107.4-3.5,124.8c-0.7,17.5-4.7,32.9-5.7,46.8c-0.9,13,1.3,62.5,1.3,62.5h5
				C198.9,626.5,198.3,587.8,199.4,576.5z"/>
			<path class="st65" d="M264.5,575.7c-0.8-10.6,1.5-23.7,0.7-38.7c-0.7-15-17.8-75.9-19.5-78.8c-0.5-0.8-2.6-7.8-4.9-0.2
				c4.5,19.5,15.8,66.3,16.5,76.6c1.1,14.9-0.7,28,0.3,38.6c1.1,10.8,19.3,63.3,19.3,63.3h3.8c0,0,0-0.5,0-1.4
				C277,623,265.1,584.8,264.5,575.7z"/>
		</g>
		<path class="st76" d="M292.2,279.8c-3.2-4.4-31.3-13.1-35.7-13.1c-4.4,0-29.4,2.8-39.3,9.9c-9.9,7.1-21.4,47.3-19.4,161.9
			c0,0,29.5,3.6,55.8,5.5l2.9-7.8l2.6,8.1c13.4,0.7,25.8,0.2,33.1-2.8C293.4,379.7,295.4,284.2,292.2,279.8z"/>
		<path class="st30" d="M200.7,449.5c0,0,51.4,3.4,79.1-2.4l2.7-19.2l-81,1.3L200.7,449.5z"/>
		<path class="st66" d="M227.6,341.7c-10.2-16.6-16.5-33.9-18.9-49.8c-6.8,21-12.3,64.9-10.8,146.7c0,0,29.5,3.6,55.8,5.5l2.9-7.8
			l2.6,8.1c13.4,0.7,25.8,0.2,33.1-2.8c0.2-14.5,0.5-30.9,0.8-47.5C270.9,390.1,245.6,370.8,227.6,341.7z"/>
		<path class="st28" d="M257.4,438.4l-0.6-2.1l-0.8,2c0-0.5,3.8-49.4,2-119.4l2-0.1C261.8,389,257.4,438,257.4,438.4z"/>
		<path class="st60" d="M252.8,349l-0.3,3.6c0,0,0,6,5.2,8.6c0,0,4.8-2.7,5.1-8.6l0.1-3.6L252.8,349z"/>
		<g>
			<path class="st60" d="M256.5,350l-25.7-73.2l0.8-0.3l24.9,71.1c2.1-6.5,12.3-41,20.3-68.3l0.8,0.1c-8.8,30.3-20.5,69.1-20.6,69.5
				L256.5,350z"/>
		</g>
		<path class="st60" d="M285.7,393.5l7.6,1.3c0,0-0.1,10-0.4,10.5c-0.3,0.5-8,0.2-8.4-0.9C284.1,403.2,285.7,393.5,285.7,393.5z"/>
		<g>
			<path class="st70" d="M258.9,349.5l-27.8-72.7l0.7-0.3l27,70.6c2-6.5,11.1-40.7,18.2-67.8l0.8,0.1c-7.9,30.1-18.5,68.6-18.6,69
				L258.9,349.5z"/>
		</g>
		<path class="st60" d="M215.5,278.3c-9.5,10.5-19.5,52.4-17.6,160.3c0,0,13.9,1.7,31.1,3.4C220.2,395.7,208.8,311.2,215.5,278.3z"
			/>
		<path class="st18" d="M204.3,391.1l21.2,1.5c0,0-0.3,9.9-1,10.4c-0.7,0.5-19.4-0.7-20.2-1.9C203.5,400,204.3,391.1,204.3,391.1z"
			/>
		<path class="st18" d="M285.8,393.1l8.8,0.5c0,0-0.1,10-0.4,10.5c-0.3,0.5-8,0.2-8.4-0.9C285.4,402.1,285.8,393.1,285.8,393.1z"/>
		<path class="st65" d="M262,301c0,0-41-28-38.6-32.3c2.4-4.2,18.5-12.2,27.2-12.2c8.7,0,32.4,6.9,33.7,11.1
			C285.8,272.4,267.3,297.6,262,301z"/>
		<path class="st36" d="M277.8,273.8c0.8-2,1.1-3.6,0.9-4.5c-1.2-3.9-19.8-11.7-27.6-11.7c-7.8,0-22.2,7.3-24.3,11.2
			c-0.7,1.3,2.8,5,7.8,9.3l24.4,45.7C258.9,323.9,275.5,286.3,277.8,273.8z"/>
		<path class="st76" d="M158.7,321.4c3.2-5.7,55.9-43.7,63.3-46.2c7.4-2.5-1.4,44-4.9,48.1c-3.5,4.2-30.8,17-35.7,18.3
			C176.4,342.9,152.4,332.9,158.7,321.4z"/>
		<path class="st60" d="M168.4,325.7c-5.2-6,12.1-20.7,27.3-33.8c7.3-6.3,16.7-9.2,25.2-16.1c-10.6,5.6-60.4,40.4-63.4,45.9
			c-6.3,11.4,19,21.3,24,20c4.9-1.3,30.9-12.3,34.4-16.5c0.2-0.3,1.8-2.5,2.1-3.1C201.9,331.2,172.4,330.4,168.4,325.7z"/>
		<path class="st74" d="M258.9,322.8c0,0-22.5-48.7-20.2-50.2c2.2-1.5,23.7-3.8,34.2,2.9C276.5,277.8,258.9,322.8,258.9,322.8z"/>
		<polygon class="st23" points="239.6,272 251.7,284 254.1,281.4 257.3,285.3 261.3,281.1 263.6,283.5 268.8,273.5 258,276.5 
			241.9,271.2 		"/>
		<g>
			<path class="st33" d="M197.6,403.3c1.8-0.3,4.5-0.9,3.2-2.3c-1.4-1.4-4.9,0.2-4.9,0.2S195.3,403.7,197.6,403.3z"/>
			<path class="st50" d="M203.1,402.9c0.4,2-6.2,2.8-6.9,2.3c-0.7-0.5-6.2-10.3-4.7-13c1.5-2.7,5.4-0.1,6.4,3c1,3.1-1.2,7.1-0.3,7.5
				C198.5,403.1,202.7,400.9,203.1,402.9z"/>
			<path class="st50" d="M204,401.8c-0.2,1.5-2,1.1-3.4,0.3c-1.5-0.9-3.4-3.5-5-5.3c-1.6-1.8-0.2-5.5,1.6-4.5c1.8,1,2.7,4.9,3.4,5.7
				C201.4,399,204.2,400.3,204,401.8z"/>
		</g>
		<polygon class="st7" points="186.5,392.5 189.1,397.5 199.1,391.6 196.2,382.9 		"/>
		<polygon class="st7" points="342.9,293.7 344.2,288.2 332.7,286.3 329.3,294.7 		"/>
		<path class="st76" d="M186,395.2c-5,2.1-40.5-54.3-28.3-72.4c12.2-18,28.6,9.3,30,11.8c1.3,2.5,13.1,44.9,10.5,50.9
			C197.4,387.4,188.4,394.2,186,395.2z"/>
		<g>
			<path class="st60" d="M174.5,372.1c-13-23.3-8.6-52.7-1.6-58.8c-5.7,2-9.9,0.2-16.1,9.4c-12.2,18,24.2,74.5,29.2,72.5
				c0.5-0.2,1.5-0.8,2.5-1.5C184.1,388.1,179.3,380.6,174.5,372.1z"/>
			<path class="st60" d="M194.2,358c-2.8-11.4-5.8-22.1-5.7-23.5c0.3-2-4.3-5.3-5.2-6.4C183.7,334.2,186.3,346.4,194.2,358z"/>
		</g>
		<path class="st76" d="M344.1,292.3c4.5,1.9-4.7,58.4-24.3,62.1c-19.6,3.7-15.5-21.4-14.7-23.9c0.8-2.5,19.2-37.8,24.8-39.9
			C331.8,289.9,342,291.3,344.1,292.3z"/>
		<path class="st60" d="M320.5,317.2c3.5-11.8,8.7-21.4,13.8-26.6c-2-0.2-3.7-0.2-4.3,0c-5.6,2.1-25.6,37.2-26.3,39.7
			c-0.8,2.5-3.3,27.6,16,24.1C315.5,348.6,315.6,333.5,320.5,317.2z"/>
		<g>
			<path class="st46" d="M271.3,336l-3.1,0l0.6-11.7l6.7,0.1l-0.1,1.5l-0.6,1.5l-3.1,0l-0.1,1.9l3.1,0l-0.2,2.9l-3.1,0L271.3,336z"
				/>
			<path class="st46" d="M275.5,336.1l0.6-11.7l6.2,0.1c0.7,0,1.2,0.6,1.2,1.5l-0.1,2.7c0,0.9-0.7,1.4-1.4,1.4l0,0.3
				c0.7,0,1.3,0.6,1.2,1.4l-0.2,3c0,0.9-0.6,1.4-1.3,1.4L275.5,336.1z M278.8,333.2l1.2,0l0.1-1.6l-1.2,0L278.8,333.2z M280.4,327.4
				l-1.2,0l-0.1,1.3l1.2,0L280.4,327.4z"/>
			<path class="st46" d="M284,336.2l0.6-11.7l3.1,0l-0.6,11.7L284,336.2z"/>
		</g>
		<polygon class="st43" points="259.7,280.4 257.1,280.7 255.4,314.4 259,322 262.7,312.1 		"/>
		<path class="st64" d="M275.2,639.2h18.6c0,0-11.5-7.5-15-7.1C275.3,632.5,275.2,639.2,275.2,639.2z"/>
		<path class="st64" d="M188.3,639.2h15.9c0,0-3.5-7.1-7.1-6.7C193.6,632.9,188.3,639.2,188.3,639.2z"/>
		<path class="st50" d="M242.2,271.3l6.6-28.2l21.6,6.3l-4,25.4C266.5,274.8,247.5,276.1,242.2,271.3z"/>
		<polygon class="st43" points="259.1,286.8 253.9,279.1 257.1,275.1 260.8,275.4 263.7,279.3 		"/>
		<polygon class="st26" points="252.1,282.6 258.4,275.2 241.7,267.9 239.6,270.9 		"/>
		<polygon class="st26" points="263.7,282 259.1,275.3 267.6,271 269.1,272.9 		"/>
		<path class="st46" d="M254,347.7l-0.3,3.5c0,0,0,5.9,4.8,8.5c0,0,4.5-2.6,4.8-8.5l0.1-3.5H254z"/>
		<path class="st65" d="M234.9,452c3.7,2.1,14.4,2.7,19.7,0.1c0,0-7,6.7-12.2,6.4C237.2,458.2,234.9,452,234.9,452z"/>
		<path class="st60" d="M293.3,386.2c0.5-29.8,1.3-58.6,1.1-79C288.1,324.8,290.7,361.4,293.3,386.2z"/>
		<path class="st75" d="M252.7,303.9c16.1,1.3,23.5-22.9,27.9-39.3c-1.9-0.7-9.8-3.9-11.9-4.5l0.8-5.2c-2-2.6-4.3-5.2-6.5-7.7
			l-14.2-4.1l-3.3,14.1c-8.8,2-20.2,8-22.1,11.5c-0.4,0.7,0.4,2.1,2.1,3.9c-3.2,1.2-6,2.5-8.2,4c-0.2,0.2-0.5,0.4-0.7,0.6
			C222.3,291.9,239.7,302.8,252.7,303.9z"/>
		<path class="st50" d="M279.7,271.1c-13-2.7-30-16-29.9-20.2c0.1-4.1,12.6-53.5,19.2-56.8c6.7-3.3,19.8,5.7,22.1,11
			C299.2,223.9,279.7,271.1,279.7,271.1z"/>
		<path class="st56" d="M288.6,227.4c-0.7-0.2-1.4-0.4-1.9-0.6c-0.5,0.7-1,1.7-1.1,2.9c-0.3,2.2,0.4,4.1,1.7,4.2
			c1.3,0.1,2.5-1.7,2.8-3.9c0.1-0.9,0.1-1.7-0.1-2.3C289.5,227.5,289.1,227.5,288.6,227.4z"/>
		<path class="st38" d="M262.8,223.3c-1.9,5.7-6.6,16.1-3.2,19.8c3.4,3.7,27.9,5.5,27.9,5.5l-7.5,24.1c0,0-32.8-7.7-31.5-24.9
			c1.3-17.2,2.7-23.1,2.7-23.1L262.8,223.3z"/>
		<path class="st4" d="M261.1,190.9c6.2-0.2,9.6,13-2.7,45.3l-8.4,0.5c0,0-7.7-8.9-3.9-16.9C249.9,211.7,261.1,190.9,261.1,190.9z"
			/>
		<path class="st50" d="M253.7,229.3c-2.3-6.2-7.3-6.4-10.4-4.9c-3.5,1.7,0.1,15.9,5.4,18.1C253.8,244.7,255.7,234.5,253.7,229.3z"
			/>
		<path class="st53" d="M254.7,348.7l-0.2,3c0,0,0,4.9,4.1,7.1c0,0,3.7-2.2,4.1-7.1l0.1-3H254.7z"/>
		<ellipse class="st46" cx="258.8" cy="353.5" rx="2.7" ry="2.8"/>
		<path class="st17" d="M251.4,230.9c-1.4-3.6-4.3-3.8-6.1-2.9c-2.1,1,0.1,9.4,3.2,10.7C251.5,240,252.6,233.9,251.4,230.9z"/>
		<path class="st50" d="M251.4,235.7c-0.8-2.2-2.6-2.3-3.7-1.7c-1.2,0.6,0,5.6,1.9,6.4C251.5,241.2,252.1,237.6,251.4,235.7z"/>
		<path class="st50" d="M283.6,222.2c0,0,3.7,29.1,3,30.1c-0.7,1-9.6-5.9-9.6-5.9L283.6,222.2z"/>
		<path class="st17" d="M284.1,223.1l-0.5,2c1,7.9,3.1,25.6,2.6,26.4c-0.5,0.8-5.9-3.1-8.4-5l-0.2,0.8c0,0,8.9,6.9,9.6,5.9
			C287.8,252.2,284.1,223.1,284.1,223.1z"/>
		<path class="st58" d="M267.2,194.5c0.3-4-2.8-5.2-5.1-5.2c-2.2,0-4.3,3.2-4.5,7.2c-0.3,4,1.3,7.2,3.5,7.2
			C263.4,203.7,267,198.5,267.2,194.5z"/>
		<path class="st58" d="M282.3,223.7c-1.1,0.4-13.4-2.7-13.5-4.8c-0.1-2.1,1.9-4.8,2.8-5.2c0.9-0.4,11.6,6.2,11.6,6.2
			S283,223.4,282.3,223.7z"/>
		<path class="st58" d="M284,223.1c0.5,0.8,8.1,3,9.1,1.5c1-1.5,1.3-4.3,1.1-5c-0.2-0.7-9.1-0.2-9.1-0.2S283.6,222.6,284,223.1z"/>
		<path class="st56" d="M275.6,224.4c-0.7-0.2-1.4-0.4-2-0.6c-0.6,0.7-1,1.7-1.2,2.9c-0.4,2.2,0.4,4.1,1.7,4.2
			c1.3,0.1,2.6-1.7,3-3.9c0.1-0.9,0.1-1.7-0.1-2.3C276.6,224.6,276.1,224.5,275.6,224.4z"/>
		<path class="st19" d="M278.1,252.8c0.4,2.1-0.2,4.6-2.1,4.6c-1.9,0-9.5-2-9.6-3.3c0-1.4,1-5.2,2-5.4
			C269.4,248.5,277.9,251.9,278.1,252.8z"/>
		<path class="st54" d="M276.2,252.7c0-0.6-4.7-2.6-7.6-3.5c-0.5,1.3-0.7,2.7-0.7,3.3c0,1.2,5.9,2.2,7.9,2.1
			C276,254.1,276.2,253.4,276.2,252.7z"/>
		<path class="st5" d="M273.5,259c0.2-0.5-0.8-0.6-2.1-1c-1.3-0.4-2.5-1-2.7-0.5c-0.2,0.5,0.7,1.3,2,1.7
			C272.1,259.6,273.3,259.5,273.5,259z"/>
	</g>
	<g>
		<path class="st76" d="M669,359.7c6.7-1.7,42.2-39,45.6-46.6c3.4-7.7-22.5-38-27.5-35.4c-5,2.6-33.1,55.1-35.7,59.9
			C645.8,348.2,655.5,363.1,669,359.7z"/>
		<path class="st60" d="M689,277.7c-8.4,5.8-12.4,26.9-20.3,41.2c-5,9.1-11.5,16.2-18,20.5c-3.9,10.4,5.5,23.6,18.3,20.4
			c6.7-1.7,42.2-39,45.6-46.6C718.1,305.4,693.7,274.4,689,277.7z"/>
		<path class="st9" d="M756.6,412.4c0,0,0.6,102.8,1,119.6c0.4,16.7,4.4,31.5,5.1,44.8c0.7,12.5-2.8,59.9-2.8,59.9H756
			c0,0-23.9-84.6-26.2-100.8c-1.8-12.8-15-79.5-18.4-79.5c-3.5,0-17.1,68.4-18.6,82.7c-1.6,14.3,0.2,26.8-1.2,37
			c-1.4,10.4-22.6,60.7-22.6,60.7h-4.2c0,0,7.4-196.4,5-231.4C669.8,405.3,730.9,400.8,756.6,412.4z"/>
		<g>
			<path class="st77" d="M694.5,528.4c-9.3-1.4-18-4.2-25.9-8c-1.6,58.5-3.8,116.3-3.8,116.3h4.2c0,0,21.2-50.3,22.6-60.7
				c1.4-10.2-0.4-22.7,1.2-37C693.1,536.6,693.7,532.9,694.5,528.4z"/>
			<path class="st77" d="M757.6,532c-0.1-2.6-0.1-7.3-0.2-13.3c-8.6,4.3-18.2,7.4-28.4,9.3c-0.2,0-0.4,0.1-0.5,0.1
				c0.6,3.4,1.1,6.1,1.4,7.9c2.3,16.2,26.2,100.8,26.2,100.8h3.9c0,0,3.6-47.5,2.8-59.9C762,563.5,758,548.7,757.6,532z"/>
		</g>
		<g>
			<path class="st65" d="M762.7,576.8c-0.8-13.3-4.7-28.1-5.1-44.8c-0.4-16.7-1-119.6-1-119.6c-15.4-7-43.5-8.1-63.5-8
				c19.1,0.2,42.4,1.8,56.1,8.1c0,0,2.1,104.2,2.8,121.1c0.7,16.9,4.8,32,5.8,45.4c0.8,10.7-1.2,46.9-1.8,57.6l0,0h3.9
				C759.9,636.7,763.5,589.2,762.7,576.8z"/>
			<path class="st65" d="M711.4,456.5c-1.4-4-2.6-4.3-3.3-4.3c-3.5,0-19.4,74.1-20.8,88.6c-1.4,14.5,0.6,27.2-0.6,37.5
				c-1.1,9-16.1,47.3-20.5,58.4h2.8c0,0,21.2-50.3,22.6-60.7c1.4-10.2-0.4-22.7,1.2-37C694,527.8,706,472.9,711.4,456.5z"/>
			<path class="st65" d="M698.2,450.5c4.3,1.3,21.2,0.5,24.5-2.8c0,0-6.1,9.6-11.4,9.3C706.1,456.8,698.2,450.5,698.2,450.5z"/>
		</g>
		<path class="st30" d="M670.4,439.1c0,0,56.4,5.5,86.3-2.5l0.5-22.2l-86.9,8.4L670.4,439.1z"/>
		<path class="st76" d="M759.2,279c-3.2-4.4-27.8-12.3-32.2-12.3c-4.4,0-29.4,2.8-39.3,9.9c-9.9,7.1-24.1,78.2-20.1,156.4
			c0,0,16,0.2,28.7,0l2.8-8.5l3.1,8.4c22.2-0.5,44.8-2.2,57.8-7.5C768,360.9,762.4,283.4,759.2,279z"/>
		<path class="st66" d="M719.2,370.1c-18.2,9.7-36.6,12.2-51.6,8.6c-0.8,17.2-0.9,35.6,0,54.4c0,0,16,0.2,28.7,0l2.8-8.5l3.1,8.4
			c22.2-0.5,44.8-2.2,57.8-7.5c4.2-34.5,4.6-72.7,3.5-101.5C755.2,342.3,739.4,359.4,719.2,370.1z"/>
		<path class="st60" d="M752.4,378.4c1.1,0.1,6.3-0.5,10.6-2.8c0.2-7.4,0.3-14.7,0.3-21.7c-7.6-6.6-36.9-11-49.9-11.9
			c-0.9-3.1-2.4-6.2-3.8-6.6c-5.8-1.4-23.8-1.2-38.4,2.1c-1.4,10.8-2.5,22.6-3.2,35.2c2.2-0.5,21.6-13.6,34.7-20.7
			C707.7,357.6,749.8,378.3,752.4,378.4z"/>
		<path class="st60" d="M760.9,283.9c-3.2-4.4-19.8,29-21,35.5c-3.2,16.9,7.7,41.2-1.3,110.8c8.7-1.1,16.4-2.6,21.5-4.7
			C768,360.9,764.1,288.2,760.9,283.9z"/>
		<g>
			<path class="st27" d="M714.9,368.1l-0.3-1.7c-0.1-0.6-7.3-63.2-13.2-93.5l0.8-0.1c5.3,27.5,11.3,81.7,12.9,91.8l27.1-87.7
				l0.8,0.3L714.9,368.1z"/>
		</g>
		<g>
			<path class="st70" d="M713.6,368.2l-0.2-1.7c-0.1-0.6-6.6-63.1-12.2-93.4l0.8-0.1c5.1,27.4,10.5,81.6,12,91.7l27.8-87.7l0.8,0.3
				L713.6,368.2z"/>
		</g>
		<path class="st28" d="M698.4,426.5l0.9-2l0.6,1.9c0-0.5-2.3-66,14-113.7l-2-0.1C696.1,361.6,698.5,426,698.4,426.5z"/>
		<path class="st60" d="M730.4,392.9l21.2,0.1c0,0-0.2,9.9-0.9,10.5c-0.7,0.6-19.3,0.7-20.2-0.5
			C729.7,401.8,730.4,392.9,730.4,392.9z"/>
		<path class="st18" d="M730.2,391.5l21.3,0.1c0,0,0.3,9.9-0.3,10.5c-0.6,0.6-19.4,0.7-20.3-0.5C730,400.5,730.2,391.5,730.2,391.5z
			"/>
		<path class="st60" d="M666.5,391.7l8.4-0.3c0,0,0.3,10,0.1,10.5c-0.2,0.6-7.6,1-8-0.1C666.5,400.6,666.5,391.7,666.5,391.7z"/>
		<path class="st18" d="M666.3,390.3l8.4-0.3c0,0-0.8,10-1.1,10.5c-0.3,0.6-7.7,1-8-0.1C665.4,399.3,666.3,390.3,666.3,390.3z"/>
		<path class="st65" d="M713,293.5c0,0,5.3,2.4,10.5-0.8c12.6-7.7,32.3-25.9,31.1-29c-1.7-4.3-13.8-12.5-22.6-13.2
			c-8.8-0.6-31.2,6.2-33.3,10.3C696.5,265.4,708.3,289.8,713,293.5z"/>
		<path class="st36" d="M701.8,265.7c-0.4-2-0.5-3.6-0.1-4.5c1.9-3.8,21.9-10.1,29.8-9.5c7.8,0.6,16.2,7.8,17.4,11.9
			c1.2,4-23.2,34.5-36.8,52.7C712.1,316.3,701.9,278.1,701.8,265.7z"/>
		<path class="st21" d="M713.4,311.1c0,0,27.9-35.3,25.9-36.9c-2-1.6-30.5-2.7-32.6-0.7C703.6,276.2,713.4,311.1,713.4,311.1z"/>
		<path class="st41" d="M707.7,274c0,0,3.6,5.4,11.6,5.4c13.5,0,19.2-4.7,19.2-4.7s-5.7-4.2-15.4-3.5
			C713.4,271.8,707.7,274,707.7,274z"/>
		<g>
			<path class="st46" d="M723.1,320.7l-3-0.2l0.9-11.3l6.4,0.4l-0.1,1.4l-0.6,1.4l-2.9-0.2l-0.2,1.8l2.9,0.2l-0.2,2.8l-2.9-0.2
				L723.1,320.7z"/>
			<path class="st46" d="M727.2,320.9l0.9-11.3l6,0.4c0.7,0,1.2,0.7,1.1,1.5L735,314c-0.1,0.8-0.7,1.3-1.3,1.3l0,0.3
				c0.7,0,1.2,0.6,1.1,1.4l-0.2,2.9c-0.1,0.8-0.6,1.4-1.3,1.3L727.2,320.9z M730.5,318.3l1.2,0.1l0.1-1.6l-1.2-0.1L730.5,318.3z
				 M732.1,312.7l-1.2-0.1l-0.1,1.3l1.2,0.1L732.1,312.7z"/>
			<path class="st46" d="M735.4,321.4l0.9-11.3l3,0.2l-0.9,11.3L735.4,321.4z"/>
		</g>
		<path class="st64" d="M764,639.2h-16.7c0,0,5.7-7.5,9.8-7.1C761.2,632.5,764,639.2,764,639.2z"/>
		<path class="st64" d="M671.3,639.2h-21.5c0,0,13.3-7.5,17.4-7.1C671.2,632.5,671.3,639.2,671.3,639.2z"/>
		<path class="st1" d="M731.7,258.2c7.6-10.2,19.6-15.5,18.7-43.2c-0.8-23.7-36.2-6.5-36.2-6.5L731.7,258.2z"/>
		<path class="st50" d="M710.5,275.2l2.1-28.9l22.3,2.8l0.1,25.7C735,274.9,716.4,279.1,710.5,275.2z"/>
		<path class="st65" d="M753.3,467.6c-4.5,0.3-8.1,0.5-9.9-1.3c-1.9-1.8,0.3-27.5,0.3-27.5l8.4,4.1L753.3,467.6z"/>
		<path class="st12" d="M743.8,436.1c-1.1,2.3,2.4,26.9,3.2,28c0.8,1.1,15.9,0.8,17-1.6c1.1-2.3-0.5-28.1-1-28.9
			C762.5,432.8,744.6,434.4,743.8,436.1z"/>
		<path class="st76" d="M651.6,337.2c5.5-13,48.6-16,58.3-13.9c2.6,0.6,5.8,11.2,4.8,13.1c-3,6-42.3,25.3-44.8,25.7
			C667.3,362.6,642.8,358.1,651.6,337.2z"/>
		<path class="st60" d="M653.5,337.4c5.3-12.6,45-15.7,56.5-14c-0.3-0.2-0.5-0.4-0.8-0.5c-9.7-2.1-52.2,0.7-57.7,13.8
			c-6.5,15.2,4.9,21.7,12.5,24C656.6,358,647.6,351.3,653.5,337.4z"/>
		<g>
			<path class="st60" d="M677.7,337.1c-1.5-1.8-7.2-4-8.8-4.1c-1.6-0.1-3-7.8-1.3-8.4c1.7-0.6,11.1,7.9,11.1,7.9
				C679.5,334.3,679.6,335.8,677.7,337.1z"/>
			<path class="st60" d="M668.1,327.3c-1.4-1.3-3.1-2.5-3.6-2.9c-0.5-0.3-3.7-0.9-3.3-2.3c0.4-1.3,6.7,1,8.9,3.7L668.1,327.3z"/>
			<path class="st60" d="M668.2,329.8c-1.7-0.7-3.7-1.3-4.3-1.5c-0.6-0.2-3.9,0.3-3.8-1c0-1.4,6.8-1.3,9.7,0.5L668.2,329.8z"/>
			<path class="st60" d="M669.8,333.1c-1.8-0.5-3.9-0.8-4.5-0.8c-0.6-0.1-3.9,0.9-4-0.5c-0.1-1.4,6.7-2.2,9.7-0.9L669.8,333.1z"/>
			<path class="st60" d="M671.9,328.3c-1.7-1.6-1.2-4.1-1.4-4.8c-0.2-0.6-2.4-3.1-1.4-4c1-0.9,6.7,8.6,9.4,13.2
				C678.5,332.7,673.6,329.9,671.9,328.3z"/>
		</g>
		<g>
			<path class="st50" d="M681,336.4c-2-2-9.2-4.6-11.2-4.7c-2-0.1-4-8.6-1.8-9.2c2.2-0.6,14.3,8.8,14.3,8.8L681,336.4z"/>
			<path class="st50" d="M668.7,325.5c-1.8-1.4-4-2.8-4.6-3.2c-0.6-0.4-4.7-1.1-4.2-2.5c0.5-1.4,8.5,1.3,11.3,4.2L668.7,325.5z"/>
			<path class="st50" d="M668.9,328.2c-2.2-0.8-4.7-1.5-5.5-1.7c-0.7-0.2-4.9,0.3-4.9-1.2c0-1.5,8.6-1.2,12.3,0.8L668.9,328.2z"/>
			<path class="st50" d="M670.9,331.9c-2.3-0.6-4.9-0.9-5.7-1c-0.8-0.1-4.9,0.9-5-0.6c-0.2-1.5,8.5-2.2,12.3-0.7L670.9,331.9z"/>
			<path class="st50" d="M673.6,326.7c-2.1-1.8-1.5-4.5-1.8-5.2c-0.3-0.7-3.1-3.5-1.9-4.4c1.3-1,8.7,9.5,12.2,14.6
				C682,331.7,675.7,328.5,673.6,326.7z"/>
		</g>
		<polygon class="st7" points="686.4,329.1 681.4,326.7 674.6,335.6 684.5,342.7 		"/>
		<path class="st60" d="M713.7,330.3C713.7,330.3,713.7,330.4,713.7,330.3c-3.1,6-42.4,24.8-45,25.2c-1.9,0.3-15.1-1.7-19-10.7
			c-0.7,14.2,17.8,17.2,20,16.8c2.6-0.5,41.9-19.2,45-25.2C715.1,335.6,714.6,333,713.7,330.3z"/>
		<path class="st76" d="M750,361.2c10.4-2.7,23.8-32.8,24.4-41.5c1.7-23.9-17.4-47.3-21.9-43.8c-2.8,2.2-11,20.6-9.4,37.6
			c1.1,11.8-8.4,22-13.5,25.1C725.4,341.2,736.8,364.6,750,361.2z"/>
		<path class="st60" d="M774.4,319.7c1.1-15.8-6.9-31.4-13.7-39.1c4.2,8,7.3,18.2,6.6,28.6c-0.6,8.7-14,38.8-24.4,41.5
			c-4.8,1.2-9.3-1-12.9-4.5c3,7.5,11.1,17.3,20,15C760.4,358.5,773.8,328.4,774.4,319.7z"/>
		<path class="st7" d="M707.6,329.9l7.3,1.1c0,0,5.4-3.9,3.9-6.4C717.7,322.5,709.8,322,707.6,329.9z"/>
		<path class="st76" d="M687.5,326.6c7.4-0.6,59.1,5.8,65.2,14.6c14.3,20.4-14.8,23.3-17.9,23c-3.1-0.2-50.5-17.8-55.5-23.4
			C677.7,339,683.2,326.9,687.5,326.6z"/>
		<g>
			<path class="st60" d="M756.6,351.1c0-0.1,0-0.1,0-0.2C756.6,350.9,756.7,351,756.6,351.1z"/>
			<path class="st60" d="M686.8,328.2c5.4-0.6,34.5,1.8,52.3,6.4c-17.7-5.1-46.2-8.4-51.5-8c-3.6,0.3-8,8.5-8.5,12.4
				C680.2,334.8,683.7,328.5,686.8,328.2z"/>
			<path class="st60" d="M735.3,364.2c-0.5,0-2.1-0.4-4.6-1.2c2.2,0.7,3.7,1.1,4.1,1.2c2.4,0.2,21.4-1.6,21.8-12.6
				C755.8,362,737.6,364.3,735.3,364.2z"/>
		</g>
		<path class="st60" d="M755,340.2c0-0.1-2.4,0.9-2.4,0.8c-3.6,6.6-15.8,9.5-17.8,9.7c-2.7,0.2-41-6.4-55.7-11.2
			c0,0.6,0,1.1,0.3,1.3c5,5.7,52.8,22.8,55.9,23C738.3,364,769.3,360.6,755,340.2z"/>
		<path class="st59" d="M749.6,462.7c-0.7-1.1-3.2-24.6-2.2-27.9c-2,0.4-3.4,0.8-3.6,1.3c-1.1,2.3,1.4,27,2.1,28.1
			c0.8,1.1,16.9,0.6,18.1-1.7c0,0,0,0,0,0C758.9,463.5,750.2,463.5,749.6,462.7z"/>
		<path class="st65" d="M747.1,439.5c0,0,0.6,5.1,1.7,5.3c1.1,0.3,15-0.6,15-0.6l0.1,1.5c0,0-14.5,1.5-15.8,1
			C747,446.2,747.1,439.5,747.1,439.5z"/>
		<path class="st65" d="M759.3,441.2c0-1.2-0.8-2.1-1.7-2.1c-1,0-1.7,1-1.7,2.1c0,1.2,0.8,2.1,1.7,2.1
			C758.5,443.4,759.3,442.4,759.3,441.2z"/>
		<path class="st60" d="M720.2,366.2l0.2,3.6c0,0-0.2,6-5.4,8.5c0,0-4.6-2.8-4.8-8.8l0-3.6L720.2,366.2z"/>
		<path class="st46" d="M719,364.9l0.2,3.5c0,0-0.2,5.9-5,8.4c0,0-4.4-2.8-4.5-8.6l0-3.5L719,364.9z"/>
		<path class="st53" d="M718.3,365.8l0.2,3c0,0-0.2,4.9-4.2,7c0,0-3.7-2.3-3.8-7.3l0-3L718.3,365.8z"/>
		<path class="st46" d="M711.5,370.4c0-1.6,1.3-2.8,2.7-2.7c1.5,0,2.6,1.3,2.6,2.9c0,1.6-1.3,2.8-2.8,2.7
			C712.6,373.2,711.4,372,711.5,370.4z"/>
		<path class="st75" d="M721.5,294.5c11.3,1.4,26.4-2.9,39.4-13.7c-0.1-0.1-0.1-0.1-0.2-0.2c0,0,0,0,0,0l0,0
			c-0.6-0.7-1.2-1.3-1.7-1.8c-0.2-0.3-0.5-0.5-0.9-0.8c-1.5-1.3-2.8-2.1-3.9-2.3c-1.8-0.9-4-1.8-6.3-2.7c4.3-4.3,7.1-7.9,6.7-9.1
			c-1.5-3.9-11.4-10.9-19.7-12.7l0-1.9l-19.3-2.4c-1.2,1-2.3,2.2-3.3,3.4l-0.3,4.1c-1.2,0.4-2.4,0.8-3.6,1.2
			C697.4,274.3,708.3,292.8,721.5,294.5z"/>
		<path class="st40" d="M707.1,247.8c-4.3-8.1-11.4-12.9-10-33.4c1.2-17.6,22.1-2.2,22.1-2.2L707.1,247.8z"/>
		<path class="st50" d="M702,268.7c13.2-1,32.4-8.4,32.8-12.3c0.3-3.8-0.2-45.6-6.4-49.4c-6.2-3.9-21.1-5-24-0.4
			C694.2,223.1,702,268.7,702,268.7z"/>
		<path class="st0" d="M728.4,207c-1.4-0.9-3.2-1.6-5.3-2.1c2,13.8,1.3,36.6,1,39.4c-0.4,3-9.3,6.9-24.5,3.7
			c-0.5,9.1,1.9,21.9,1.9,21.9c13.2-1,33.8-8.1,34.2-12C736,254.1,734.6,210.9,728.4,207z"/>
		<path class="st0" d="M731.1,207.4c10.9,0.2,6.1,33,6.1,33l-4,7.2l-5.9,0.2C727.3,247.8,720.2,207.3,731.1,207.4z"/>
		<path class="st50" d="M731.6,245.3c1.5-5.5,8.9-9.3,11.3-5.4c2.4,3.9-6.7,14-8.4,14.5C732.8,254.9,730.6,249,731.6,245.3z"/>
		<path class="st17" d="M733.9,245.7c0.9-3.3,5.4-5.6,6.9-3.3c1.4,2.4-4.1,8.5-5.1,8.8C734.6,251.6,733.3,248,733.9,245.7z"/>
		<path class="st50" d="M733.4,248.6c0.6-2.1,3.4-3.5,4.3-2.1c0.9,1.5-2.6,5.3-3.2,5.5C733.8,252.3,733,250.1,733.4,248.6z"/>
		<path class="st50" d="M707.9,225.4c0,0-9,26.4-8.5,27.5c0.4,1.1,9.8-3.7,9.8-3.7L707.9,225.4z"/>
		<path class="st17" d="M707.3,226.1l0.1,2c-2.4,7.2-7.7,23.3-7.4,24.1c0.3,0.8,6-1.8,8.6-3.1l0,0.7c0,0-9.4,4.8-9.8,3.7
			C698.3,252.6,707.3,226.1,707.3,226.1z"/>
		<path class="st40" d="M708.6,226.7c1,0.7,13,1.2,13.5-0.8c0.5-2-0.8-5-1.6-5.6c-0.8-0.6-12,2.6-12,2.6S708,226.3,708.6,226.7z"/>
		<path class="st40" d="M707.2,226.8c-0.6,0.6-7.8,0.9-8.4-0.7c-0.6-1.7-0.3-4.4,0-5c0.3-0.6,8.1,2,8.1,2S707.6,226.4,707.2,226.8z"
			/>
		<path class="st75" d="M750.3,222.4c0.1-2.3,0.2-4.7,0.1-7.3c0-1.5-0.3-2.8-0.6-4l-43.9-5.8c-0.4,0.2-0.7,0.5-0.9,0.7
			c-4-0.2-7.3,1.7-7.7,8.4c-0.2,2.8-0.2,5.3-0.1,7.5C700.6,231.1,739.5,224.6,750.3,222.4z"/>
		<path class="st65" d="M700.4,205.4l50,11.9c0,0,1.6-24.5-2.1-28.5c-3.6-4-35.5-8.6-38.5-5.1C706.8,187.2,700.4,205.4,700.4,205.4z
			"/>
		<path class="st42" d="M748.3,188.8c-1.9-2-11.2-4.2-20.2-5.4c2.7,5,4.3,11.1,4.3,17.7c0,4.1-0.6,8-1.7,11.5l19.6,4.7
			C750.4,217.3,752,192.8,748.3,188.8z"/>
		<path class="st65" d="M665.2,200c-1.2-0.8,36.1,1.4,36.1,1.4l40.2,12.5C741.5,213.9,678.7,209.3,665.2,200z"/>
		<path class="st42" d="M732.3,210.3c-14.1-1.3-50.8-4.3-66.3-10.5c-0.6,0-1,0.1-0.8,0.2c13.5,9.3,79.8,15,79.8,15L732.3,210.3z"/>
		<g>
			<path class="st46" d="M710.4,198.4l-2.3-0.4l1.8-8.5l5,1l-0.2,1.1l-0.6,1l-2.3-0.4l-0.3,1.4l2.3,0.4l-0.5,2.1l-2.3-0.4
				L710.4,198.4z"/>
			<path class="st46" d="M713.6,199l1.8-8.5l4.7,0.9c0.6,0.1,0.8,0.6,0.7,1.2l-0.4,2c-0.1,0.6-0.7,0.9-1.2,0.8l0,0.2
				c0.5,0.1,0.9,0.6,0.7,1.2l-0.5,2.2c-0.1,0.6-0.6,1-1.2,0.9L713.6,199z M716.4,197.3l0.9,0.2l0.3-1.2l-0.9-0.2L716.4,197.3z
				 M718.3,193.3l-0.9-0.2l-0.2,0.9l0.9,0.2L718.3,193.3z"/>
			<path class="st46" d="M720,200.2l1.8-8.5l2.3,0.4l-1.8,8.5L720,200.2z"/>
		</g>
		<path class="st31" d="M712.6,229.5l4,0.1c0,0,0.3,5.3-2,4.9C712.4,234.2,712.6,229.5,712.6,229.5z"/>
		<path class="st31" d="M700.7,229.6l4,0.1c0,0,0.3,5.3-2,4.9C700.4,234.3,700.7,229.6,700.7,229.6z"/>
		<path class="st31" d="M719.6,252.8c-3.8,2.4-8.9,2.6-12,2.4l-1.3,0.3c0,0,10.4,1.7,15.9-3.2L719.6,252.8z"/>
		<path class="st31" d="M711.3,257.6c1.2,0,5.7-1,5.9-1.1c0,0-1.4,1.4-2.9,1.7C712.9,258.5,711.3,257.6,711.3,257.6z"/>
		<g>
			<path class="st60" d="M713.2,329.7c2.5,0.5,7,4.6,7.7,6.1c0.7,1.4,9.2-1,9.1-2.9c-0.1-1.9-12.5-6.4-12.5-6.4
				C715.3,326.6,713.8,327.2,713.2,329.7z"/>
			<path class="st60" d="M727,333.7c1.9,0.7,3.8,1.7,4.4,2c0.6,0.3,2.4,3,3.6,1.9c1.2-1-3.7-5.7-7.3-6.4L727,333.7z"/>
			<path class="st60" d="M724.5,334.8c1.4,1.2,2.8,2.8,3.2,3.3c0.4,0.5,1.2,3.8,2.6,3c1.4-0.7-1.4-6.9-4.3-8.7L724.5,334.8z"/>
			<path class="st60" d="M720.4,335c1.2,1.4,2.3,3.2,2.6,3.7c0.3,0.5,0.6,4,2,3.4c1.4-0.6-0.4-7.3-3-9.4L720.4,335z"/>
			<path class="st60" d="M724.5,330.7c2.3,0.8,4.7-0.9,5.4-1c0.7-0.1,4.2,0.7,4.7-0.6c0.5-1.4-11.4-2-17.2-2.3
				C717.3,326.7,722.2,329.9,724.5,330.7z"/>
		</g>
		<g>
			<path class="st50" d="M713.2,327.7c2.5,0.5,7.4,4.5,8.2,5.9c0.9,1.4,9.1-1,8.8-2.8c-0.3-1.8-13.1-6.3-13.1-6.3
				C715,324.7,713.5,325.3,713.2,327.7z"/>
			<path class="st50" d="M727.4,331.6c1.9,0.7,4,1.6,4.5,1.9c0.6,0.3,2.7,2.9,3.8,1.9c1.1-1-4.2-5.6-7.8-6.3L727.4,331.6z"/>
			<path class="st50" d="M724.9,332.7c1.5,1.2,3.1,2.7,3.5,3.2c0.4,0.5,1.5,3.7,2.8,3c1.3-0.7-2-6.8-5.1-8.5L724.9,332.7z"/>
			<path class="st50" d="M720.9,332.9c1.3,1.4,2.6,3.1,3,3.7c0.4,0.5,1,3.9,2.4,3.4c1.4-0.5-1.1-7.1-3.8-9.2L720.9,332.9z"/>
			<path class="st50" d="M724.5,328.6c2.4,0.7,4.6-0.9,5.3-1c0.7-0.1,4.2,0.7,4.6-0.6c0.4-1.3-11.6-2-17.4-2.2
				C717,324.8,722.1,327.9,724.5,328.6z"/>
		</g>
	</g>
	<g>
		<g>
			<path class="st47" d="M483.9,541.1c0.8-3,1.5-6-1.3-14l-2.4,0.7c-0.6,4.2-3.8,10.1-3.2,11.4C477.4,539.7,483.7,542.2,483.9,541.1
				z"/>
			<path class="st47" d="M477.4,537.5c-0.4,1.4-3.2,6.1-2.4,6.4c1.2,0.5,3.1-3.5,3.9-5.1C480.1,536.8,477.4,537.5,477.4,537.5z"/>
			<path class="st47" d="M482.2,540.1c-0.1,1.4-1.4,7.2-0.6,7.4c1.4,0.4,2.6-5.7,2.5-7.2C484.1,538,482.2,540.1,482.2,540.1z"/>
			<path class="st47" d="M481.8,536.3c3-0.5,4.4,5.1,6,5.6c2.2,0.7-1.9-7-3.1-9.2C483.5,530.5,481.8,536.3,481.8,536.3z"/>
			<path class="st47" d="M479.6,539.6c-0.3,1.4-2.3,7.3-1.6,7.7c1.2,0.5,3-5.5,3.5-6.9C482.2,538.2,479.6,539.6,479.6,539.6z"/>
		</g>
		<path class="st45" d="M517.8,460.7l7.8-5.1l1.6,1.3l-8,5.8C519.1,462.7,517.2,462.3,517.8,460.7z"/>
		<path class="st34" d="M494.9,473l23.1-13.5l2.8,3l-22.2,16.7C498.7,479.2,493.4,477.5,494.9,473z"/>
		<path class="st45" d="M549.4,452.1c10.7-6.4,17.2-15.2,14.6-19.6c-2.6-4.4-13.5-2.7-24.2,3.7c-10.7,6.4-17.2,15.2-14.6,19.6
			C527.9,460.1,538.7,458.5,549.4,452.1z"/>
		<path class="st32" d="M549.4,452.1c9.4-5.6,15.6-13.1,15.2-17.8c-4.1-2.4-13.4-0.4-22.7,5.1c-9.4,5.6-15.6,13.1-15.2,17.8
			C530.8,459.6,540.1,457.6,549.4,452.1z"/>
		<path class="st32" d="M539.6,436.3c-10.6,6.4-17,15.1-14.4,19.4c2.6,4.4,13.5,2.7,24.2-3.7c1.5-0.9,3-1.9,4.3-2.9
			C546,447.2,540.4,441.9,539.6,436.3z"/>
		<path class="st49" d="M539.1,437.4c10.7-6.4,21.5-8.1,24.2-3.7c1,1.6,0.7,3.8-0.5,6.2c1.8-2.9,2.3-5.6,1.2-7.4
			c-2.6-4.4-13.5-2.7-24.2,3.7c-6.8,4.1-11.9,9.1-14.1,13.4C528.2,445.5,533,441.1,539.1,437.4z"/>
		<path class="st68" d="M549.2,450.6c9.1-5.4,15.2-11.8,13.8-14.3c-1.5-2.4-10,0-19.1,5.4c-9.1,5.4-15.3,11.8-13.8,14.3
			C531.5,458.5,540.1,456,549.2,450.6z"/>
		<path class="st57" d="M548.5,449.5c8.4-5.1,14.3-10.8,13.1-12.7c-1.2-2-9,0.5-17.4,5.6c-8.4,5-14.3,10.8-13.1,12.7
			C532.3,457,540.1,454.5,548.5,449.5z"/>
		<path class="st35" d="M544.4,450.7c1.5-0.9,2.5-1.9,2.3-2.3c-0.2-0.4-1.6,0-3.1,0.8c-1.5,0.9-2.5,1.9-2.3,2.3
			C541.5,451.9,542.9,451.5,544.4,450.7z"/>
		<polygon class="st55" points="475.2,532.3 474,523.5 487.3,522.7 486.9,531.3 		"/>
		<g>
			<path class="st47" d="M510.2,466.3c-2.3-2.6-4.4-5.1-12.8-7.5l-0.6,2.5c3.3,3.1,6.9,9.6,8.4,9.9
				C505.8,471.4,511,467.2,510.2,466.3z"/>
			<path class="st47" d="M503.9,470c1,1.2,2.8,4.5,3.5,4.1c1-0.8-0.7-2.8-1.6-4.6C504.6,467.1,503.9,470,503.9,470z"/>
			<path class="st47" d="M508.5,467.3c1.2,1,3.8,3.4,4.4,2.8c1-1.1-2-3.5-3.3-4.4C507.6,464.3,508.5,467.3,508.5,467.3z"/>
			<path class="st47" d="M505,465.2c1-3,6.6-0.8,7.8-1.9c1.6-1.6-7-2.6-9.5-2.9C500.8,460.1,505,465.2,505,465.2z"/>
			<path class="st47" d="M506.8,469.3c1.1,1.2,3,3.5,3.7,3c1-0.8-1.1-3-2.1-4.3C506.9,466,506.8,469.3,506.8,469.3z"/>
		</g>
		<polygon class="st55" points="499.4,467.7 490.5,466.9 492.7,453.6 501,456 		"/>
		<polygon class="st22" points="461.3,564.2 430.8,569.1 421.5,527.2 424.8,569.9 403.4,571.5 416.7,484.6 454.9,524.4 		"/>
		<polygon class="st20" points="455.2,542.4 406.8,495.7 421.1,477.5 431,485.4 464.1,530.7 		"/>
		<path class="st2" d="M451.1,372.1l18-28.9c8.5-0.2,28.9,43.2,30.1,56.2l-24.6,9.7L451.1,372.1z"/>
		<path class="st15" d="M485.2,401.4c4.9,10.4-1.7,56.7-3.7,62.4c-2,5.8-1.1,12.6-2.4,17.8c-1.3,5.2-26.7-2.5-26.4-11.1
			c0.3-8.6,4.4-38.9,7.1-46.2C462.6,416.9,479.8,389.7,485.2,401.4z"/>
		<path class="st72" d="M474.1,459.9c4.8-47.5,7.7-42.5,11.1-58.5c-5.4-11.6-22.6,15.5-25.3,22.9c-2.7,7.3-6.8,37.6-7.1,46.2
			c-0.2,6.1,12.6,11.8,20.5,12.7C472.9,476.4,473.2,468.4,474.1,459.9z"/>
		<path class="st15" d="M376.1,437.1l1.6-11.1c0,0,60.9-61.4,66.6-61.9c5.7-0.5,36.4,16.2,42.4,33.9c6,17.7-40.6,70.2-41.5,71.1
			c-0.9,0.8-14.5,3.8-14.5,3.8L376.1,437.1z"/>
		<path class="st72" d="M403.3,441.3c-0.7-1,0.3-3.1,0.3-3.1l7.2,2.7l-7.2-10.3c0,0,37.1-42.9,54.1-61.1c-6.1-3.4-11.3-5.4-13.3-5.3
			c-5.7,0.5-66.6,61.9-66.6,61.9l-1.6,11.1l54.7,35.8c0,0,13.6-2.9,14.5-3.8c0,0,0,0,0,0S418.7,464.5,403.3,441.3z"/>
		<path class="st2" d="M417.8,461.7c0,0,9.3,1.5,11.2,0.3c1.9-1.1,36.1-32.9,36.1-32.9s-35.2,28.6-37.8,30.5
			C424.6,461.6,417.8,461.7,417.8,461.7z"/>
		<path class="st15" d="M440.4,375.1c-8.8,10.3-12.6,54.1-11.9,60.5c0.7,6.5-1.3,13.6-1.2,19.3c0.1,5.7,25-4.9,27.1-14.1
			c2.1-9.2,5.7-43.4,4.6-51.6C458,381,450.2,363.5,440.4,375.1z"/>
		<path class="st72" d="M439.7,413.7c1.2-19.1,8.1-37.3,15.1-41.4c-5-4.6-12.2-4.2-17.4,1.8c-8.8,10.3-10.5,55.6-11,62.1
			c-0.6,8.1-1.9,14.2,1.1,20.1c1.8,3.5,11.9,2.2,22.1-1.7C442.8,450.4,438.5,433.5,439.7,413.7z"/>
		<path class="st15" d="M466.2,528.3c0,0,20.1-0.1,20.9-2.1c0.8-2-5.5-49.6-9.9-56c-4.5-6.3-18.9-7.6-20.5-3.6
			C455,470.7,454.6,502.7,466.2,528.3z"/>
		<path class="st72" d="M472.2,496.3c-1.3-12.1-1.4-23-0.5-30.1c-7-3.3-17.4-4.3-18.6-1.2c-1.6,4,1.5,37.8,13.1,63.4
			c0,0,7,0,12.9-0.5C476.3,521.2,473.7,509.6,472.2,496.3z"/>
		<path class="st15" d="M491.5,475c0,0,6.5-19.8,4.7-21.4c-1.7-1.7-50.7-16.8-58.4-15.2c-7.7,1.6-11.9,14.9-8.5,18.3
			C432.8,460,462.5,475,491.5,475z"/>
		<path class="st72" d="M478.5,462.5c-22.7-6.7-39.6-17.3-37.8-23.7c0.1-0.2,0.1-0.3,0.2-0.5c-1.3-0.1-2.6-2.5-3.3-2.3
			c-7.7,1.6-13,18.3-9.5,21.7c3.4,3.4,34.3,17.3,63.3,17.3c0,0,1.4-4.1,2.7-8.8C489.3,465.4,484,464.1,478.5,462.5z"/>
		<polygon class="st55" points="463.5,375.8 467.8,403.3 476.8,394.8 		"/>
		<path class="st47" d="M464,375.5l20.3-11.1l4.5,20.5l-14.6,10.8C474.2,395.7,465.3,391.8,464,375.5z"/>
		<polygon class="st11" points="470.4,394.7 467.3,399.5 468,403.5 471.1,400.3 471.1,394.9 		"/>
		<polygon class="st11" points="470,396.6 469.1,391.4 471.7,390.6 473.7,392.3 474.2,395.8 		"/>
		<polygon class="st55" points="473.2,391.7 466.2,373.9 462.7,373.9 464.8,392.3 		"/>
		<polygon class="st55" points="473.9,398.4 472.6,391.6 479.2,393.3 479.5,395.1 		"/>
		<path class="st72" d="M460.2,393.8l12.3-21.1c-8.4-9.9-4.3-25.5-3.4-29.6c-7.3,7.4-12.4,14.2-15.6,23.8
			C457.9,371.3,458.5,381,460.2,393.8z"/>
		<path class="st14" d="M452.4,532.4c13.2,39.9,27.8,85.2,31.2,101.4l3.3-1.2c0,0-11.5-39.7-20.7-84.7c-1.3-6.2-2.7-12.6-4.3-19
			L452.4,532.4z"/>
		<polygon class="st68" points="476,623.7 488.3,615.8 467.2,521.9 446.4,530.4 		"/>
		<path class="st20" d="M481,583.4C481,583.4,481,583.4,481,583.4l-13.8-61.6l-20.8,8.5l24.3,76.4
			C471.4,593.6,475.8,583.4,481,583.4z"/>
		<path class="st14" d="M398.9,528.6l-11.3-2c-1.4,6.9-2.8,13.9-3.9,20.8c-7.3,43.6-17.1,87.2-17.1,87.2l3,0.5
			c2.3-12.9,13.8-50.2,23.1-83.5C394.8,543.7,397,536,398.9,528.6z"/>
		<path class="st15" d="M482.3,638.9H513c0,0-1-3.8-7.8-4c-4.6-0.2-15.8-6.8-18.3-5.5C481.1,632.6,482.3,638.9,482.3,638.9z"/>
		<path class="st15" d="M371.4,638.9h-23.8c0,0-0.1-3.4,8.1-4c3.9-0.3,8.6-7.3,12.1-7.3C371.6,627.6,371.4,638.9,371.4,638.9z"/>
		<polygon class="st68" points="377.8,626.7 365.7,621 384.6,522 407.1,522 		"/>
		<path class="st20" d="M379.2,596.1c2.3,0.3,4.4,1.8,6,4.1l21.9-78.2l-22.4-0.1l-15.4,80.6C372,598.2,375.6,595.6,379.2,596.1z"/>
		<path class="st15" d="M360.2,585.6l55.3-4.9l8-55.8l-1.1-45.6l23.6,47.7l4.8,49.6l34.6-8.9l-12-46.6l-37-42.9l-59.5-40.5
			c0,0-14.2,12.9-14.7,26.3C361.1,491.1,364.6,531.9,360.2,585.6z"/>
		<polygon class="st72" points="442.8,485.5 424.7,472 434.1,475.5 		"/>
		<polygon class="st72" points="434.5,477 393,456.4 396.1,450.4 434.1,475 		"/>
		<g>
			<path class="st6" d="M362.4,510.6c0.3,21.2,0.2,46.2-2.1,74.9l55.3-4.9l7.6-53C399.4,526.6,378,520.3,362.4,510.6z"/>
			<path class="st6" d="M446.1,527.2l4.8,49.5l34.6-8.9l-11.9-46C465.1,524.3,455.8,526.2,446.1,527.2z"/>
		</g>
		<path class="st72" d="M395.7,582.4c-10.3-39.6-7.6-115.6,1.6-130.7l-20.4-13.9c0,0-14.2,12.9-14.7,26.3
			c-1.1,27,2.4,67.8-1.9,121.5L395.7,582.4z"/>
		<polygon class="st69" points="376.2,436.5 374.7,440 434.8,476.7 435,472 		"/>
		<g>
			<path class="st25" d="M432.3,470.4c-0.1,1.6-0.3,3-0.8,4.3l3.3,2l0.2-4.7L432.3,470.4z"/>
			<path class="st25" d="M401.6,451.8l-25.4-15.3l-1.5,3.5l26,15.8C400.8,454.4,401.1,453.1,401.6,451.8z"/>
		</g>
		<path class="st69" d="M418.2,466c0,0-3.5,28.7-4.3,47.5l5.1,0.4c0,0,2.8-45.9,2.2-48.1C420.7,463.4,418.3,464.9,418.2,466z"/>
		<path class="st69" d="M424.4,468.5c0,0,4.3,33.5,5.8,55.3l-4.5,0.1c0,0-4.4-53.4-4-56C422.1,465.4,424.2,467.2,424.4,468.5z"/>
		<path class="st25" d="M422.9,488.7c1.2,16,2.8,35.3,2.8,35.3l4.5-0.1c-0.5-7.1-1.3-15.5-2.1-23.5
			C426.3,497.9,424.5,493.8,422.9,488.7z"/>
		<polygon class="st61" points="426.2,467.7 419.6,464.4 419.3,469.3 425.8,472.6 		"/>
		<polygon class="st72" points="467.8,444.3 452.3,440.7 456.7,426.4 455,439.6 		"/>
		<path class="st10" d="M464.6,417.9c11.8,1.3,25.5-11.5,27.1-32.7c0.2-3,0.1-6.3-0.4-9.6c-7-15.8-16.9-32.6-22.2-32.5
			c-7.3,7.4-12.4,14.2-15.6,23.8c0.2,0.2,0.3,0.4,0.5,0.6l0,0c-0.2-0.1-0.4-0.2-0.7-0.3c0,0,0,0-0.1,0c-1.3-0.6-2.6-1.2-3.7-1.6
			c-0.1,0-0.1,0-0.2-0.1c-0.5-0.2-0.9-0.4-1.4-0.5c-0.1,0-0.1-0.1-0.2-0.1c-0.5-0.2-0.9-0.3-1.3-0.4c-0.1,0-0.1,0-0.2,0
			c-0.3-0.1-0.6-0.1-0.9-0.2c-0.1,0-0.2,0-0.3,0c-0.3,0-0.6-0.1-0.8,0c-0.5,0-1.4,0.5-2.6,1.4C448,381.5,455.8,416.9,464.6,417.9z"
			/>
		<path class="st71" d="M480,370.3c1.2-8.8,4.7-20.9,12.7-27.1c13.3-10.3,27.3,14,27.3,14L480,370.3z"/>
		<path class="st47" d="M495.4,356.9c0,0-19.7,12.1-20.8,16.7c-1,4.6,1.6,33,5.1,34c3.5,1,27.4-13.2,31.6-16.2
			c4.2-3,16.6-9.1,17.4-15.3C529.6,369.9,517.6,334.8,495.4,356.9z"/>
		<path class="st8" d="M509,378c0,0-6.2,2.7-5.2,4.4c0.9,1.5,7.5-0.2,7.5-0.2L509,378z"/>
		<path class="st8" d="M513.2,385.7c0,0-4.9,2.8-4,4.4c0.8,1.4,5.6-0.9,5.6-0.9L513.2,385.7z"/>
		<path class="st34" d="M513.1,384.7c-0.7,0.6,1.4,6.6,2.8,6.3c1.4-0.2,5.7-1.9,5.9-2.7c0.2-0.8-2.3-5.3-3.1-5.5
			C518,382.6,513.7,384.2,513.1,384.7z"/>
		<path class="st73" d="M490.6,369.7c0.5-3.5,14.9-15.8,20.2-19.9c-4.4-0.5-9.5,1.3-15.4,7.1c0,0-19.7,12.1-20.8,16.7
			c-1,4.6,1.6,33,5.1,34c2.3,0.6,12.8-4.9,21.2-9.8C497,393.6,490.1,373.7,490.6,369.7z"/>
		<path class="st34" d="M484.4,373c5.5-6.6,19.8-15,25.5-16.2c5.7-1.2,12.8-4.8-2.8-11.4c-15.6-6.6-23.1,19.2-26.4,24.4L484.4,373z"
			/>
		<path class="st71" d="M506.5,343.4c-11.2-4.8-18.8,8.2-22,18.3c1.6-0.7,3.5-1.3,5.5-1.7c4.5-0.9,8.6-0.7,11.4,0.4
			c3.4-1.8,6.4-3.1,8.4-3.6C515.6,355.6,522.1,350,506.5,343.4z"/>
		<path class="st47" d="M487.7,363.4c2.5-3.7,3.9-12.1-2.5-12.6c-5.3-0.4-8.3,15.3-6.6,17.4C480.5,370.6,485.1,367.4,487.7,363.4z"
			/>
		<path class="st17" d="M485.3,363.7c1.5-2.3,2.4-7.6-1.5-7.9c-3.3-0.3-5.2,9.5-4.1,10.9C480.8,368.2,483.7,366.2,485.3,363.7z"/>
		<path class="st47" d="M483.3,365.9c1-1.5,1.5-4.8-1-4.9c-2.1-0.2-3.3,6-2.6,6.9C480.5,368.8,482.3,367.5,483.3,365.9z"/>
		<path class="st34" d="M484.1,385c0,0,10.1-2.1,14.9,9c4,9.2-3,14-4,14.3C495.1,408.4,487.5,396.6,484.1,385z"/>
		<path class="st47" d="M518.5,381.3c0,0-18.6,17.6-19.8,17.8c-1.1,0.3-1.7-10.3-1.7-10.3L518.5,381.3z"/>
		<path class="st17" d="M499,398.1c-0.9,0.2-1.4-5.8-1.6-8.7l-0.5,0.2c0,0,0.6,10.6,1.7,10.3c1.1-0.2,19.8-17.8,19.8-17.8l-2.3,0.8
			C510.8,387.7,499.9,397.9,499,398.1z"/>
		<path class="st34" d="M505.6,369.3c-0.7,1,4.8,14.5,6.6,14.3c1.7-0.1,6.4-2.5,6.4-4.1c-0.1-1.6-5.5-12.1-6.6-12.7
			C510.8,366.2,506.1,368.4,505.6,369.3z"/>
		<path class="st10" d="M511.3,391.4c0.8-0.5,1.8-1.2,3-1.9c0.5,0.9,1.1,1.6,1.6,1.5c1.4-0.2,5.7-1.9,5.9-2.7
			c0.1-0.4-0.4-1.7-1.1-2.9c2.9-2,5.6-4.3,7-6.6l-32.5-37.1c-0.8,0.4-1.7,0.9-2.5,1.5c-2.7,2.1-4.8,4.8-6.6,7.8
			c-0.3-0.1-0.6-0.1-0.9-0.2c-1-0.1-1.8,0.4-2.6,1.2l25.2,41.7C509.4,392.7,510.7,391.9,511.3,391.4z"/>
		<path class="st62" d="M493.5,341c-0.3-0.3,26.2-15.4,29.5-15c3.3,0.4,16.5,15.2,16.9,17.4c0.4,2.1,1.2,7.3,2.4,8.7
			c1.3,1.3,5.9,0.3,6.9,1.8c1,1.5-17,29.6-17,29.6S509.6,355,493.5,341z"/>
		<path class="st24" d="M525,355.4c0-9.1,2.3-17.3,6-23.1c-3.3-3.3-6.5-6.2-7.9-6.3c-3.3-0.4-29.9,14.7-29.5,15
			c16,14,38.6,42.5,38.6,42.5s0.4-0.7,1.2-1.8C528.3,376.1,525,366.4,525,355.4z"/>
		<path class="st62" d="M474.5,326.6c0.3,1.7,30.8,33.7,36.3,38.8c5.6,5.2,42.1,46.4,43.9,43.4c1.8-3-34.5-43.5-38.4-48.1
			C512.5,356,473.1,319.2,474.5,326.6z"/>
		<path class="st3" d="M516.9,361.3c-0.3-0.3-0.5-0.6-0.6-0.7c-3.8-4.6-43.3-41.4-41.8-34c0.3,1.7,30.8,33.7,36.3,38.8
			c1.7,1.5,6.1,6.3,11.6,12.2C519.7,371.6,517.9,366.1,516.9,361.3z"/>
		<path class="st15" d="M541.3,368.9L507,333.2c-2.9,1.5-5.7,3.1-8,4.4l37.5,39C538,374.3,539.7,371.6,541.3,368.9z"/>
	</g>
</g>
</svg>
